<mxfile host="app.diagrams.net" modified="2022-03-18T09:06:50.523Z" agent="5.0 (Windows NT 10.0; Win64; x64) AppleWebKit/537.36 (KHTML, like Gecko) Chrome/98.0.4758.109 Safari/537.36 OPR/84.0.4316.31" etag="HYQCUJXTVTutGdaCciMV" version="17.1.2" type="github" pages="2">
  <diagram id="O-COvA5yGFPx3bs2D0ob" name="Page-1">
    <mxGraphModel dx="1382" dy="764" grid="1" gridSize="10" guides="1" tooltips="1" connect="1" arrows="1" fold="1" page="1" pageScale="1" pageWidth="850" pageHeight="1100" math="0" shadow="0">
      <root>
        <mxCell id="0" />
        <mxCell id="1" parent="0" />
        <mxCell id="9bgD9Mx8DnPE2t-8mdHm-7" style="edgeStyle=orthogonalEdgeStyle;rounded=0;orthogonalLoop=1;jettySize=auto;html=1;entryX=0;entryY=0.5;entryDx=0;entryDy=0;" edge="1" parent="1" target="9bgD9Mx8DnPE2t-8mdHm-5">
          <mxGeometry relative="1" as="geometry">
            <mxPoint x="300" y="500" as="sourcePoint" />
          </mxGeometry>
        </mxCell>
        <mxCell id="9bgD9Mx8DnPE2t-8mdHm-5" value="chọn đăng nhập" style="rounded=1;whiteSpace=wrap;html=1;arcSize=40;fontColor=#000000;fillColor=#ffffc0;strokeColor=#ff0000;" vertex="1" parent="1">
          <mxGeometry x="380" y="480" width="120" height="40" as="geometry" />
        </mxCell>
        <mxCell id="9bgD9Mx8DnPE2t-8mdHm-6" value="" style="edgeStyle=orthogonalEdgeStyle;html=1;verticalAlign=bottom;endArrow=open;endSize=8;strokeColor=#ff0000;rounded=0;" edge="1" source="9bgD9Mx8DnPE2t-8mdHm-5" parent="1">
          <mxGeometry relative="1" as="geometry">
            <mxPoint x="440" y="580" as="targetPoint" />
          </mxGeometry>
        </mxCell>
        <mxCell id="9bgD9Mx8DnPE2t-8mdHm-10" style="edgeStyle=orthogonalEdgeStyle;rounded=0;orthogonalLoop=1;jettySize=auto;html=1;" edge="1" parent="1" source="9bgD9Mx8DnPE2t-8mdHm-8">
          <mxGeometry relative="1" as="geometry">
            <mxPoint x="600" y="660" as="targetPoint" />
          </mxGeometry>
        </mxCell>
        <mxCell id="9bgD9Mx8DnPE2t-8mdHm-15" style="edgeStyle=orthogonalEdgeStyle;rounded=0;orthogonalLoop=1;jettySize=auto;html=1;" edge="1" parent="1" source="9bgD9Mx8DnPE2t-8mdHm-8">
          <mxGeometry relative="1" as="geometry">
            <mxPoint x="310" y="660" as="targetPoint" />
          </mxGeometry>
        </mxCell>
        <mxCell id="9bgD9Mx8DnPE2t-8mdHm-8" value="" style="shape=line;html=1;strokeWidth=6;strokeColor=#ff0000;" vertex="1" parent="1">
          <mxGeometry x="350" y="580" width="190" height="10" as="geometry" />
        </mxCell>
        <mxCell id="9bgD9Mx8DnPE2t-8mdHm-11" value="Nhập tên đăng nhâp&lt;br&gt;và mật khẩu" style="rounded=1;whiteSpace=wrap;html=1;arcSize=40;fontColor=#000000;fillColor=#ffffc0;strokeColor=#ff0000;" vertex="1" parent="1">
          <mxGeometry x="260" y="660" width="120" height="40" as="geometry" />
        </mxCell>
        <mxCell id="9bgD9Mx8DnPE2t-8mdHm-21" style="edgeStyle=orthogonalEdgeStyle;rounded=0;orthogonalLoop=1;jettySize=auto;html=1;" edge="1" parent="1">
          <mxGeometry relative="1" as="geometry">
            <mxPoint x="400" y="780" as="targetPoint" />
            <mxPoint x="370" y="680" as="sourcePoint" />
          </mxGeometry>
        </mxCell>
        <mxCell id="9bgD9Mx8DnPE2t-8mdHm-17" value="" style="ellipse;html=1;shape=startState;fillColor=#000000;strokeColor=#ff0000;" vertex="1" parent="1">
          <mxGeometry x="280" y="485" width="30" height="30" as="geometry" />
        </mxCell>
        <mxCell id="9bgD9Mx8DnPE2t-8mdHm-24" style="edgeStyle=orthogonalEdgeStyle;rounded=0;orthogonalLoop=1;jettySize=auto;html=1;" edge="1" parent="1" source="9bgD9Mx8DnPE2t-8mdHm-23">
          <mxGeometry relative="1" as="geometry">
            <mxPoint x="405" y="850" as="targetPoint" />
          </mxGeometry>
        </mxCell>
        <mxCell id="9bgD9Mx8DnPE2t-8mdHm-47" style="edgeStyle=orthogonalEdgeStyle;rounded=0;orthogonalLoop=1;jettySize=auto;html=1;entryX=0;entryY=0.5;entryDx=0;entryDy=0;" edge="1" parent="1" source="9bgD9Mx8DnPE2t-8mdHm-23" target="9bgD9Mx8DnPE2t-8mdHm-40">
          <mxGeometry relative="1" as="geometry" />
        </mxCell>
        <mxCell id="9bgD9Mx8DnPE2t-8mdHm-23" value="" style="shape=line;html=1;strokeWidth=6;strokeColor=#ff0000;" vertex="1" parent="1">
          <mxGeometry x="310" y="780" width="190" height="10" as="geometry" />
        </mxCell>
        <mxCell id="9bgD9Mx8DnPE2t-8mdHm-27" style="edgeStyle=orthogonalEdgeStyle;rounded=0;orthogonalLoop=1;jettySize=auto;html=1;" edge="1" parent="1" source="9bgD9Mx8DnPE2t-8mdHm-26" target="9bgD9Mx8DnPE2t-8mdHm-28">
          <mxGeometry relative="1" as="geometry">
            <mxPoint x="400" y="960" as="targetPoint" />
          </mxGeometry>
        </mxCell>
        <mxCell id="9bgD9Mx8DnPE2t-8mdHm-26" value="chọn nút đăng nhập" style="rounded=1;whiteSpace=wrap;html=1;arcSize=40;fontColor=#000000;fillColor=#ffffc0;strokeColor=#ff0000;" vertex="1" parent="1">
          <mxGeometry x="340" y="850" width="120" height="40" as="geometry" />
        </mxCell>
        <mxCell id="9bgD9Mx8DnPE2t-8mdHm-29" style="edgeStyle=orthogonalEdgeStyle;rounded=0;orthogonalLoop=1;jettySize=auto;html=1;" edge="1" parent="1" source="9bgD9Mx8DnPE2t-8mdHm-28">
          <mxGeometry relative="1" as="geometry">
            <mxPoint x="190" y="965" as="targetPoint" />
          </mxGeometry>
        </mxCell>
        <mxCell id="9bgD9Mx8DnPE2t-8mdHm-44" style="edgeStyle=orthogonalEdgeStyle;rounded=0;orthogonalLoop=1;jettySize=auto;html=1;" edge="1" parent="1" source="9bgD9Mx8DnPE2t-8mdHm-28">
          <mxGeometry relative="1" as="geometry">
            <mxPoint x="580" y="965" as="targetPoint" />
          </mxGeometry>
        </mxCell>
        <mxCell id="9bgD9Mx8DnPE2t-8mdHm-28" value="xác nhận thông tin&lt;br&gt;đăng nhập" style="rhombus;whiteSpace=wrap;html=1;fillColor=#ffffc0;strokeColor=#ff0000;" vertex="1" parent="1">
          <mxGeometry x="330" y="940" width="140" height="50" as="geometry" />
        </mxCell>
        <mxCell id="9bgD9Mx8DnPE2t-8mdHm-31" value="Sai thông tin đăng nhập" style="text;strokeColor=none;fillColor=none;align=left;verticalAlign=top;spacingLeft=4;spacingRight=4;overflow=hidden;rotatable=0;points=[[0,0.5],[1,0.5]];portConstraint=eastwest;" vertex="1" parent="1">
          <mxGeometry x="230" y="920" width="140" height="26" as="geometry" />
        </mxCell>
        <mxCell id="9bgD9Mx8DnPE2t-8mdHm-38" style="edgeStyle=orthogonalEdgeStyle;rounded=0;orthogonalLoop=1;jettySize=auto;html=1;entryX=0;entryY=0.5;entryDx=0;entryDy=0;" edge="1" parent="1" source="9bgD9Mx8DnPE2t-8mdHm-34">
          <mxGeometry relative="1" as="geometry">
            <mxPoint x="250" y="680" as="targetPoint" />
            <Array as="points">
              <mxPoint x="20" y="965" />
              <mxPoint x="20" y="680" />
            </Array>
          </mxGeometry>
        </mxCell>
        <mxCell id="9bgD9Mx8DnPE2t-8mdHm-34" value="đăng nhập thất bại" style="rounded=1;whiteSpace=wrap;html=1;arcSize=40;fontColor=#000000;fillColor=#ffffc0;strokeColor=#ff0000;" vertex="1" parent="1">
          <mxGeometry x="70" y="945" width="120" height="40" as="geometry" />
        </mxCell>
        <mxCell id="9bgD9Mx8DnPE2t-8mdHm-41" style="edgeStyle=orthogonalEdgeStyle;rounded=0;orthogonalLoop=1;jettySize=auto;html=1;" edge="1" parent="1" source="9bgD9Mx8DnPE2t-8mdHm-40" target="9bgD9Mx8DnPE2t-8mdHm-42">
          <mxGeometry relative="1" as="geometry">
            <mxPoint x="720" y="680" as="targetPoint" />
          </mxGeometry>
        </mxCell>
        <mxCell id="9bgD9Mx8DnPE2t-8mdHm-40" value="thoát ra" style="rounded=1;whiteSpace=wrap;html=1;arcSize=40;fontColor=#000000;fillColor=#ffffc0;strokeColor=#ff0000;" vertex="1" parent="1">
          <mxGeometry x="540" y="660" width="120" height="40" as="geometry" />
        </mxCell>
        <mxCell id="9bgD9Mx8DnPE2t-8mdHm-42" value="" style="ellipse;html=1;shape=endState;fillColor=#000000;strokeColor=#ff0000;" vertex="1" parent="1">
          <mxGeometry x="705" y="665" width="30" height="30" as="geometry" />
        </mxCell>
        <mxCell id="9bgD9Mx8DnPE2t-8mdHm-45" style="edgeStyle=orthogonalEdgeStyle;rounded=0;orthogonalLoop=1;jettySize=auto;html=1;" edge="1" parent="1" source="9bgD9Mx8DnPE2t-8mdHm-43">
          <mxGeometry relative="1" as="geometry">
            <mxPoint x="760" y="965" as="targetPoint" />
          </mxGeometry>
        </mxCell>
        <mxCell id="9bgD9Mx8DnPE2t-8mdHm-43" value="đăng nhập thành công" style="rounded=1;whiteSpace=wrap;html=1;arcSize=40;fontColor=#000000;fillColor=#ffffc0;strokeColor=#ff0000;" vertex="1" parent="1">
          <mxGeometry x="585" y="945" width="120" height="40" as="geometry" />
        </mxCell>
        <mxCell id="9bgD9Mx8DnPE2t-8mdHm-46" value="" style="ellipse;html=1;shape=endState;fillColor=#000000;strokeColor=#ff0000;" vertex="1" parent="1">
          <mxGeometry x="760" y="950" width="30" height="30" as="geometry" />
        </mxCell>
      </root>
    </mxGraphModel>
  </diagram>
  <diagram id="FcDzCYxbpWz60OqzIHNH" name="Page-2">
    <mxGraphModel dx="1382" dy="764" grid="1" gridSize="10" guides="1" tooltips="1" connect="1" arrows="1" fold="1" page="1" pageScale="1" pageWidth="850" pageHeight="1100" math="0" shadow="0">
      <root>
        <mxCell id="gI6fVjDNJH-51LXJiaYe-0" />
        <mxCell id="gI6fVjDNJH-51LXJiaYe-1" parent="gI6fVjDNJH-51LXJiaYe-0" />
        <mxCell id="gI6fVjDNJH-51LXJiaYe-2" value="" style="ellipse;html=1;shape=startState;fillColor=#000000;strokeColor=#ff0000;" vertex="1" parent="gI6fVjDNJH-51LXJiaYe-1">
          <mxGeometry x="410" y="50" width="30" height="30" as="geometry" />
        </mxCell>
        <mxCell id="gI6fVjDNJH-51LXJiaYe-3" value="" style="edgeStyle=orthogonalEdgeStyle;html=1;verticalAlign=bottom;endArrow=open;endSize=8;strokeColor=#ff0000;rounded=0;" edge="1" source="gI6fVjDNJH-51LXJiaYe-2" parent="gI6fVjDNJH-51LXJiaYe-1">
          <mxGeometry relative="1" as="geometry">
            <mxPoint x="425" y="140" as="targetPoint" />
          </mxGeometry>
        </mxCell>
      </root>
    </mxGraphModel>
  </diagram>
</mxfile>
